# xmcd
#
# Track frame offsets:
#	150
#	21630
#	38808
#	69540
#	108043
#	131314
#	159683
#	189315
#	207078
#	228416
#	245785
#	260649
#
# Disc length: 3723 seconds
#
# Revision: 0
# Processed by: cddbd v1.5.2PL0 Copyright (c) Steve Scherf et al.
# Submitted via: EZCDAudioConverter 1.1.0.1
#
DISCID=a60e890c
DTITLE=David Bromberg  - Only Slightly Mad
DYEAR=2013
DGENRE=Blues
TTITLE0=Nobody's Fault But Mine   
TTITLE1=Keep on Drinkin'
TTITLE2=Drivin' Wheel
TTITLE3=I'll Take You Back
TTITLE4=The Strongest Man Alive/Maydelle's Reel/Jenny's Chickens
TTITLE5=Last Date
TTITLE6=Nobody Knows the Way I Feel This Mornin'
TTITLE7=The Fields Have Turned Brown
TTITLE8=Cattle In the Cane/Forked Deer/Monroe's Hornpipe
TTITLE9=I'll Rise Again
TTITLE10=World of Fools
TTITLE11=You've  Got to Mean It Too
EXTD=
EXTT0=
EXTT1=
EXTT2=
EXTT3=
EXTT4=
EXTT5=
EXTT6=
EXTT7=
EXTT8=
EXTT9=
EXTT10=
EXTT11=
PLAYORDER=
